<svg width="20" height="20" viewBox="0 0 20 20" fill="none" xmlns="http://www.w3.org/2000/svg">
<path d="M7.5 14.7916C7.41667 14.7916 7.34167 14.775 7.25833 14.7416C7.025 14.65 6.875 14.4166 6.875 14.1666V9.16663C6.875 8.82496 7.15833 8.54163 7.5 8.54163C7.84167 8.54163 8.125 8.82496 8.125 9.16663V12.6583L8.725 12.0583C8.96667 11.8166 9.36667 11.8166 9.60833 12.0583C9.85 12.3 9.85 12.7 9.60833 12.9416L7.94167 14.6083C7.825 14.725 7.65833 14.7916 7.5 14.7916Z" fill="#131517"/>
<path d="M7.49997 14.7917C7.34164 14.7917 7.18331 14.7333 7.05831 14.6083L5.39164 12.9417C5.14997 12.7 5.14997 12.3 5.39164 12.0583C5.6333 11.8167 6.03331 11.8167 6.27497 12.0583L7.94164 13.725C8.1833 13.9667 8.1833 14.3667 7.94164 14.6083C7.81664 14.7333 7.6583 14.7917 7.49997 14.7917Z" fill="#131517"/>
<path d="M12.5 18.9583H7.50002C2.97502 18.9583 1.04169 17.025 1.04169 12.5V7.49996C1.04169 2.97496 2.97502 1.04163 7.50002 1.04163H11.6667C12.0084 1.04163 12.2917 1.32496 12.2917 1.66663C12.2917 2.00829 12.0084 2.29163 11.6667 2.29163H7.50002C3.65835 2.29163 2.29169 3.65829 2.29169 7.49996V12.5C2.29169 16.3416 3.65835 17.7083 7.50002 17.7083H12.5C16.3417 17.7083 17.7084 16.3416 17.7084 12.5V8.33329C17.7084 7.99163 17.9917 7.70829 18.3334 7.70829C18.675 7.70829 18.9584 7.99163 18.9584 8.33329V12.5C18.9584 17.025 17.025 18.9583 12.5 18.9583Z" fill="#131517"/>
<path d="M18.3334 8.95828H15C12.15 8.95828 11.0417 7.84995 11.0417 4.99995V1.66662C11.0417 1.41662 11.1917 1.18328 11.425 1.09162C11.6584 0.991617 11.925 1.04995 12.1084 1.22495L18.775 7.89162C18.95 8.06662 19.0084 8.34162 18.9084 8.57495C18.8084 8.80828 18.5834 8.95828 18.3334 8.95828ZM12.2917 3.17495V4.99995C12.2917 7.14995 12.85 7.70828 15 7.70828H16.825L12.2917 3.17495Z" fill="#131517"/>
</svg>
